<svg width="50" height="29" viewBox="0 0 50 29" fill="none" xmlns="http://www.w3.org/2000/svg">
<g clip-path="url(#clip0_20_29)">
<path d="M37.2531 8.51184L41.4142 1.29946C41.6525 0.885052 41.5108 0.355535 41.0972 0.115971C40.6836 -0.122814 40.154 0.019242 39.9146 0.433183L35.7016 7.73692C32.4795 6.26535 28.8611 5.44564 24.9999 5.44564C21.1389 5.44564 17.5202 6.26535 14.2984 7.73692L10.0854 0.433105C9.84603 0.0191641 9.3162 -0.122892 8.90257 0.115893C8.48917 0.355457 8.3465 0.884974 8.58583 1.29938L12.747 8.51177C5.60179 12.4012 0.714798 19.6405 0 28.1932H50C49.2845 19.6405 44.3974 12.4012 37.2531 8.51184ZM36.4873 16.9004C37.6256 16.9004 38.5514 17.8435 38.5514 19.0027C38.5514 20.1622 37.6256 21.106 36.4874 21.106C35.3495 21.106 34.4237 20.1622 34.4237 19.0027C34.4237 17.8435 35.3494 16.9004 36.4873 16.9004ZM13.5125 16.9004C14.6504 16.9004 15.5763 17.8435 15.5763 19.0027C15.5763 20.1622 14.6504 21.106 13.5125 21.106C12.3743 21.106 11.4486 20.1622 11.4486 19.0027C11.4486 17.8435 12.3743 16.9004 13.5125 16.9004Z" fill="#3DDC84"/>
</g>
<defs>
<clipPath id="clip0_20_29">
<rect width="50" height="28.3203" fill="white"/>
</clipPath>
</defs>
</svg>
