<svg width="61" height="50" viewBox="0 0 61 50" fill="none" xmlns="http://www.w3.org/2000/svg">
<path d="M29.746 8.53646L31.4965 8.53776C39.0734 8.56035 44.8532 8.80018 48.5321 9.02344L48.9421 9.04879C52.8331 9.29009 56.0605 12.0047 56.9654 15.8052L57.1014 16.3857C57.8269 19.5003 58.7755 23.8912 59.4276 28.2837L59.5556 29.152C59.9987 32.2237 60.3619 35.8213 60.6452 39.8448C60.796 42.2277 60.0118 44.52 58.4132 46.2996C56.8145 48.0792 54.6127 49.1048 52.2298 49.2254L50.71 49.2933C45.569 49.5164 38.3491 49.7611 30.6708 49.7682L29.3164 49.767C21.8915 49.7468 14.9433 49.5099 9.95349 49.2933L8.43368 49.2254C6.02067 49.1349 3.84896 48.0792 2.25034 46.2996C0.651723 44.52 -0.132506 42.2277 0.0183073 39.8448L0.0755839 39.0478C0.346311 35.3563 0.666112 32.0588 1.0754 29.1755L1.16449 28.564C1.85823 23.7983 2.91392 19.0025 3.66799 15.8052C4.56313 12.0456 7.73113 9.31908 11.5952 9.05648L12.8551 8.98091C16.6489 8.76501 22.3694 8.54748 29.746 8.53646ZM30.9394 12.6687H29.7824C21.7178 12.6809 15.6755 12.9454 11.9929 13.1811C9.91165 13.3319 8.22254 14.7495 7.73994 16.7704L7.55408 17.5453C6.82411 20.6248 5.90726 24.9216 5.29677 29.1673L5.20769 29.7565C4.76928 32.7359 4.43525 36.214 4.18075 40.1163C4.09026 41.3831 4.51254 42.5896 5.35709 43.5247C6.20165 44.4597 7.34783 45.0026 8.61466 45.063L10.608 45.1518C15.6742 45.369 22.6063 45.5988 29.9906 45.6057L31.3532 45.6045C39.5004 45.5819 47.0394 45.2946 52.0488 45.063C53.3157 45.0026 54.4619 44.4597 55.3064 43.5247C56.1208 42.5896 56.5431 41.3831 56.5431 40.1163L56.4858 39.3415C56.1959 35.4961 55.8512 32.0798 55.4271 29.1673C54.7333 24.5524 53.7078 19.8772 52.9839 16.7704C52.5013 14.7495 50.782 13.3017 48.731 13.1811L47.6141 13.1132C43.8741 12.8973 38.2117 12.6798 30.9394 12.6687ZM37.058 33.3297C37.058 37.0397 34.0418 40.056 30.3318 40.056C26.629 40.056 23.6357 37.0702 23.5762 33.4399L23.5753 33.3297H37.058ZM15.2504 24.9747C17.5411 24.9747 19.3624 26.7939 19.4118 29.0431L19.4129 29.1371H11.088C11.088 26.8447 12.9581 24.9747 15.2504 24.9747ZM45.4131 24.9747C47.7038 24.9747 49.525 26.7939 49.5745 29.0431L49.5755 29.1371H41.2506C41.2506 26.8447 43.1207 24.9747 45.4131 24.9747ZM30.3318 0C31.7796 0 32.9257 1.17634 32.9257 2.59399C32.9257 4.01163 31.7494 5.15781 30.3318 5.15781C28.9141 5.15781 27.7378 3.98147 27.7378 2.59399C27.7378 1.14618 28.9141 0 30.3318 0Z" fill="#683D87"/>
</svg>
