<svg width="47" height="50" viewBox="0 0 47 50" fill="none" xmlns="http://www.w3.org/2000/svg">
<g clip-path="url(#clip0_22_140)">
<path d="M38.988 35.3742L34.8433 32.6399L31.3858 38.4155L27.3644 37.24L23.8236 42.6442L24.005 44.3451L43.2575 40.7973L42.1393 28.7677L38.988 35.3742ZM21.0343 30.1882L24.1236 29.7634C24.623 29.988 24.9709 30.0736 25.57 30.2259C26.5037 30.4686 27.5835 30.7018 29.1831 29.8961C29.5553 29.7116 30.3312 29.0025 30.6445 28.5981L43.2999 26.3027L44.5909 41.9281L22.9088 45.8356L21.0343 30.1882ZM44.5422 24.5578L43.2929 24.7958L40.8931 0L0 4.74148L5.03831 45.6243L9.82533 44.9294C9.4429 44.3836 8.84767 43.7232 7.83152 42.8782C6.42196 41.7074 6.91982 39.7175 7.75221 38.4611C8.85238 36.3385 14.5213 33.6411 14.2001 30.2487C14.0846 29.015 13.8891 27.4099 12.7434 26.309C12.7002 26.766 12.778 27.205 12.778 27.205C12.778 27.205 12.3076 26.605 12.0736 25.7876C11.8411 25.4735 11.6582 25.3737 11.4108 24.9544C11.2341 25.4389 11.2577 26.0012 11.2577 26.0012C11.2577 26.0012 10.8729 25.0926 10.8108 24.3254C10.5831 24.6685 10.5258 25.3203 10.5258 25.3203C10.5258 25.3203 10.0264 23.888 10.1402 23.1161C9.91249 22.4447 9.23638 21.1121 9.4272 18.084C10.675 18.958 13.4227 18.7507 14.493 17.1731C14.8479 16.6501 15.0922 15.2241 14.3155 12.4128C13.8169 10.6106 12.5824 7.92654 12.101 6.90804L12.0437 6.94966C12.2974 7.77027 12.8204 9.48923 13.0214 10.324C13.6292 12.8526 13.7917 13.7336 13.5067 14.8998C13.264 15.9135 12.6822 16.5763 11.2074 17.3176C9.73267 18.0613 7.77498 16.2512 7.65169 16.1515C6.21857 15.0097 5.10977 13.1478 4.98648 12.2424C4.8577 11.2522 5.55737 10.6577 5.90996 9.8481C5.40503 9.99181 4.84278 10.2486 4.84278 10.2486C4.84278 10.2486 5.51418 9.55362 6.34186 8.95289C6.68502 8.72595 6.88605 8.58146 7.24728 8.28148C6.72429 8.27285 6.29946 8.28777 6.29946 8.28777C6.29946 8.28777 7.17189 7.8166 8.07574 7.47344C7.41454 7.44438 6.78083 7.46873 6.78083 7.46873C6.78083 7.46873 8.72752 6.59786 10.2643 5.95943C11.3213 5.52596 12.3539 5.65396 12.9342 6.49342C13.6959 7.5928 14.4961 8.18961 16.1915 8.55947C17.2328 8.09773 17.5485 7.86136 18.8567 7.50406C20.008 6.23742 20.9118 6.07408 20.9118 6.07408C20.9118 6.07408 20.4634 6.48557 20.3433 7.13184C20.9958 6.61749 21.7112 6.18795 21.7112 6.18795C21.7112 6.18795 21.434 6.52954 21.1757 7.07295L21.2353 7.16247C21.9971 6.70544 22.8923 6.34579 22.8923 6.34579C22.8923 6.34579 22.6363 6.66932 22.3363 7.08787C22.9111 7.08316 24.0757 7.11221 24.528 7.16326C27.1971 7.22215 27.7507 4.3135 28.7747 3.94835C30.0571 3.49054 30.6303 3.21333 32.8158 5.36027C34.6902 7.20409 36.1555 10.5022 35.4276 11.2412C34.8174 11.8545 33.6144 11.0017 32.281 9.34003C31.5766 8.45974 31.0434 7.41925 30.7937 6.09686C30.5832 4.98098 29.7634 4.33392 29.7634 4.33392C29.7634 4.33392 30.2385 5.39404 30.2385 6.32773C30.2385 6.83815 30.3021 8.74558 31.1203 9.81669C31.0395 9.97296 31.0018 10.591 30.9123 10.7095C29.9605 9.55912 27.9164 8.73616 27.5827 8.49351C28.7111 9.41777 31.3041 11.5411 32.2998 13.5774C33.2422 15.5021 32.687 17.2666 33.1636 17.7228C33.2995 17.8532 35.1896 20.209 35.5532 21.3924C36.1877 23.4545 35.5909 25.6227 34.7609 26.967L32.442 27.3283C32.1027 27.234 31.8742 27.1869 31.5703 27.011C31.7384 26.7142 32.0713 25.9745 32.0745 25.8213L31.9433 25.592C31.2216 26.6145 30.0131 27.607 29.0088 28.1771C27.6942 28.9224 26.1794 28.8069 25.1931 28.5023C22.3944 27.6392 19.7472 25.7475 19.1088 25.2504C19.1088 25.2504 19.0892 25.647 19.2093 25.7365C19.9145 26.5328 21.5314 27.9722 23.0949 28.9766L19.763 29.3433L21.3382 41.6069C20.6401 41.7066 20.5309 41.7561 19.7669 41.8644C19.0931 39.4843 17.8045 37.9302 16.3957 37.0248C15.1534 36.2262 13.4399 36.0464 11.8003 36.3715L11.6951 36.494C12.8353 36.3754 14.1812 36.5403 15.5641 37.4159C16.9211 38.2742 18.0149 40.491 18.4178 41.8252C18.9337 43.5308 19.2902 45.3558 17.9019 47.2899C16.9148 48.6649 14.0328 49.4243 11.7037 47.7807C12.3256 48.7811 13.1659 49.5986 14.2982 49.7525C15.9787 49.981 17.5736 49.6889 18.6714 48.562C19.6083 47.5985 20.1061 45.5835 19.975 43.4617L21.4584 43.2465L21.9939 47.0551L46.5455 44.0985L44.5422 24.5578ZM29.6048 14.215C29.5365 14.3713 29.4281 14.4741 29.5899 14.983L29.5993 15.0121L29.6252 15.078L29.6927 15.2304C29.9841 15.8264 30.3037 16.3879 30.8392 16.6753C30.9774 16.6517 31.1211 16.636 31.2696 16.6289C31.7721 16.6069 32.0894 16.6863 32.2896 16.7946C32.3077 16.6941 32.3116 16.548 32.3006 16.3321C32.2613 15.5775 32.4498 14.2943 30.9994 13.619C30.4521 13.3653 29.6841 13.4431 29.4281 13.7603C29.4744 13.7666 29.516 13.776 29.549 13.787C29.9369 13.9213 29.6747 14.0548 29.6048 14.215ZM33.6709 21.2558C33.4809 21.1505 32.5919 21.1921 31.9669 21.2667C30.7764 21.4073 29.4909 21.8196 29.2098 22.0395C28.6978 22.4352 28.9302 23.1247 29.3087 23.4082C30.3696 24.2005 31.2994 24.7322 32.2802 24.6026C32.8825 24.5233 33.4141 23.5692 33.7903 22.7038C34.0478 22.1078 34.0478 21.4646 33.6709 21.2558ZM23.1318 15.1487C23.4671 14.8299 21.4599 14.4113 19.9019 15.4738C18.7531 16.2575 18.7162 17.938 19.8164 18.8905C19.9263 18.9847 20.0174 19.0515 20.1014 19.1065C20.4226 18.9549 20.7885 18.8026 21.2102 18.6659C21.9217 18.4351 22.5138 18.3157 22.9998 18.2521C23.2323 17.9922 23.5032 17.5343 23.4357 16.7051C23.343 15.5798 22.4918 15.7581 23.1318 15.1487Z" fill="#632CA6"/>
</g>
<defs>
<clipPath id="clip0_22_140">
<rect width="46.5455" height="50" fill="white"/>
</clipPath>
</defs>
</svg>
