<svg width="50" height="49" viewBox="0 0 50 49" fill="none" xmlns="http://www.w3.org/2000/svg">
<g clip-path="url(#clip0_21_40)">
<path d="M25.0002 0C11.1948 0 0 11.1927 0 25.0002C0 36.046 7.16332 45.4171 17.0967 48.7228C18.3461 48.9543 18.8048 48.1805 18.8048 47.5202C18.8048 46.924 18.7816 44.9547 18.7709 42.8657C11.8158 44.378 10.3482 39.916 10.3482 39.916C9.21093 37.0263 7.57235 36.2579 7.57235 36.2579C5.30408 34.7063 7.74332 34.7382 7.74332 34.7382C10.2538 34.9145 11.5757 37.3144 11.5757 37.3144C13.8054 41.1364 17.4241 40.0315 18.8508 39.3927C19.0751 37.7769 19.723 36.674 20.438 36.0497C14.8851 35.4175 9.04782 33.2739 9.04782 23.6945C9.04782 20.965 10.0244 18.7348 11.6237 16.9841C11.3641 16.3544 10.5084 13.8116 11.8659 10.368C11.8659 10.368 13.9652 9.69613 18.7427 12.9307C20.7369 12.3767 22.8756 12.0989 25.0002 12.0894C27.1248 12.0989 29.2652 12.3767 31.2631 12.9307C36.0348 9.69613 38.1312 10.368 38.1312 10.368C39.492 13.8116 38.6359 16.3544 38.3763 16.9841C39.9793 18.7348 40.9493 20.965 40.9493 23.6945C40.9493 33.2966 35.1008 35.4109 29.5338 36.0298C30.4306 36.8056 31.2296 38.3271 31.2296 40.6595C31.2296 44.0046 31.2006 46.6967 31.2006 47.5202C31.2006 48.1855 31.6506 48.965 32.9178 48.7195C42.8458 45.4101 50 36.0422 50 25.0002C50 11.1927 38.8069 0 25.0002 0ZM9.36339 35.6133C9.30833 35.7375 9.11292 35.7748 8.93491 35.6895C8.75358 35.6079 8.65174 35.4386 8.71052 35.314C8.76434 35.1861 8.96016 35.1505 9.14108 35.2362C9.32282 35.3177 9.42632 35.4887 9.36339 35.6133ZM10.5931 36.7106C10.4739 36.8211 10.2408 36.7698 10.0827 36.5951C9.91914 36.4208 9.88851 36.1877 10.0094 36.0755C10.1323 35.965 10.3584 36.0167 10.5223 36.191C10.6859 36.3674 10.7177 36.5988 10.5931 36.7106ZM11.4368 38.1145C11.2836 38.2209 11.0331 38.1211 10.8783 37.8988C10.7251 37.6765 10.7251 37.4099 10.8816 37.3031C11.0368 37.1963 11.2836 37.2923 11.4405 37.513C11.5933 37.739 11.5933 38.0056 11.4368 38.1145ZM12.8635 39.7405C12.7265 39.8916 12.4346 39.851 12.221 39.6448C12.0024 39.4432 11.9416 39.1571 12.079 39.006C12.2177 38.8545 12.5112 38.8972 12.7265 39.1017C12.9434 39.3029 13.0097 39.591 12.8635 39.7405ZM14.7075 40.2894C14.6471 40.4852 14.366 40.5742 14.0828 40.491C13.8001 40.4053 13.615 40.1759 13.6721 39.978C13.7309 39.781 14.0133 39.6882 14.2985 39.7773C14.5808 39.8625 14.7663 40.0902 14.7075 40.2894ZM16.806 40.5222C16.8131 40.7284 16.573 40.8993 16.2757 40.9031C15.9768 40.9097 15.735 40.7429 15.7317 40.54C15.7317 40.3318 15.9665 40.1624 16.2654 40.1575C16.5626 40.1517 16.806 40.3173 16.806 40.5222ZM18.8676 40.4432C18.9032 40.6444 18.6966 40.851 18.4015 40.906C18.1112 40.959 17.8426 40.8348 17.8057 40.6353C17.7697 40.4291 17.98 40.2225 18.2698 40.1691C18.5654 40.1178 18.8299 40.2387 18.8676 40.4432Z" fill="#161614"/>
</g>
<defs>
<clipPath id="clip0_21_40">
<rect width="50" height="48.8281" fill="white"/>
</clipPath>
</defs>
</svg>
