<svg width="46" height="50" viewBox="0 0 46 50" fill="none" xmlns="http://www.w3.org/2000/svg">
<path d="M0 44.3768V5.5345C0 1.27986 4.65858 -1.37928 8.38762 0.749594L42.4341 20.1699C46.1616 22.2973 46.1616 27.6124 42.4341 29.7382L8.38762 49.1601C4.66014 51.2874 0 48.6298 0 44.3768Z" fill="#2F80ED"/>
<path d="M34.0886 15.4099L16.1997 25.7112L12.7842 19.6599C12.4012 18.9798 11.7621 18.4811 11.0093 18.2749C10.2556 18.0634 9.44875 18.1587 8.76505 18.5401L0 23.4061V29.3732L9.32027 24.1968L12.7514 30.2793C13.1351 30.9577 13.7901 31.4646 14.5481 31.6705C15.3119 31.8758 16.1259 31.771 16.8127 31.3788L39.3398 18.4044L34.0886 15.4099Z" fill="#CCF6FF"/>
</svg>
