<svg width="50" height="50" viewBox="0 0 50 50" fill="none" xmlns="http://www.w3.org/2000/svg">
<path d="M49.7955 28.1744C51.5452 14.4769 41.872 1.95415 28.1994 0.204469C14.5269 -1.54522 1.95415 8.12804 0.204469 21.8006C-1.54522 35.4731 8.12804 48.0209 21.8006 49.7955C35.4981 51.5452 48.0209 41.872 49.7955 28.1744Z" fill="#FF6C37"/>
<path d="M34.0234 16.0516L23.4753 26.5997L20.5009 23.6252C30.874 13.2521 31.8988 14.1519 34.0234 16.0516Z" fill="white"/>
<path d="M23.4752 26.8496C23.4003 26.8496 23.3503 26.8246 23.3003 26.7746L20.3008 23.8001C20.2008 23.7001 20.2008 23.5502 20.3008 23.4502C30.8489 12.9021 31.9487 13.9019 34.1733 15.9015C34.2233 15.9515 34.2483 16.0015 34.2483 16.0765C34.2483 16.1515 34.2233 16.2015 34.1733 16.2515L23.6252 26.7746C23.6002 26.8246 23.5252 26.8496 23.4752 26.8496ZM20.8507 23.6251L23.4752 26.2497L33.6484 16.0765C31.7987 14.4268 30.549 13.9269 20.8507 23.6251Z" fill="#FF6C37"/>
<path d="M26.4997 29.6242L23.6252 26.7498L34.1733 16.2017C36.9978 19.0511 32.7736 23.6753 26.4997 29.6242Z" fill="white"/>
<path d="M26.4997 29.8742C26.4247 29.8742 26.3747 29.8492 26.3247 29.7992L23.4503 26.9247C23.4003 26.8747 23.4003 26.8247 23.4003 26.7497C23.4003 26.6747 23.4253 26.6247 23.4753 26.5747L34.0234 16.0266C34.1233 15.9267 34.2733 15.9267 34.3733 16.0266C35.0232 16.6265 35.3731 17.4764 35.3481 18.3512C35.2981 21.1257 32.1487 24.6501 26.6997 29.7992C26.6247 29.8492 26.5497 29.8742 26.4997 29.8742ZM23.9752 26.7497C25.5749 28.3744 26.2498 29.0243 26.4997 29.2743C30.699 25.275 34.7732 21.1757 34.7982 18.3512C34.8232 17.7013 34.5733 17.0515 34.1483 16.5516L23.9752 26.7497Z" fill="#FF6C37"/>
<path d="M20.5507 23.7001L22.6754 25.8247C22.7254 25.8747 22.7254 25.9247 22.6754 25.9747C22.6504 25.9997 22.6504 25.9997 22.6254 25.9997L18.2262 26.9495C18.0012 26.9745 17.8012 26.8245 17.7513 26.5996C17.7263 26.4746 17.7762 26.3496 17.8512 26.2746L20.4008 23.7251C20.4508 23.6751 20.5258 23.6501 20.5507 23.7001Z" fill="white"/>
<path d="M18.1512 27.1996C17.7763 27.1996 17.5013 26.8996 17.5013 26.5247C17.5013 26.3497 17.5763 26.1747 17.7013 26.0498L20.2508 23.5002C20.4008 23.3752 20.6008 23.3752 20.7508 23.5002L22.8754 25.6248C23.0253 25.7498 23.0253 25.9748 22.8754 26.1248C22.8254 26.1747 22.7754 26.1997 22.7004 26.2247L18.3012 27.1746C18.2512 27.1746 18.2012 27.1996 18.1512 27.1996ZM20.4758 23.9751L18.0262 26.4247C17.9763 26.4747 17.9513 26.5497 18.0013 26.6247C18.0262 26.6997 18.1012 26.7246 18.1762 26.6997L22.3005 25.7998L20.4758 23.9751Z" fill="#FF6C37"/>
<path d="M39.5974 10.2026C37.9977 8.65284 35.4232 8.70283 33.8735 10.3275C32.3237 11.9522 32.3737 14.5018 33.9984 16.0515C35.3232 17.3263 37.3228 17.5512 38.8975 16.6014L36.0481 13.7519L39.5974 10.2026Z" fill="white"/>
<path d="M36.7979 17.4263C34.4233 17.4263 32.4987 15.5017 32.4987 13.1271C32.4987 10.7525 34.4233 8.82788 36.7979 8.82788C37.8977 8.82788 38.9725 9.2528 39.7723 10.0277C39.8223 10.0777 39.8473 10.1276 39.8473 10.2026C39.8473 10.2776 39.8223 10.3276 39.7723 10.3776L36.398 13.752L39.0475 16.4015C39.1475 16.5015 39.1475 16.6515 39.0475 16.7515C39.0225 16.7764 39.0225 16.7764 38.9975 16.8014C38.3476 17.2014 37.5727 17.4263 36.7979 17.4263ZM36.7979 9.35279C34.6983 9.35279 32.9986 11.0525 33.0236 13.1521C33.0236 15.2517 34.7233 16.9514 36.8229 16.9264C37.3978 16.9264 37.9727 16.8014 38.4976 16.5265L35.873 13.927C35.8231 13.877 35.7981 13.827 35.7981 13.752C35.7981 13.677 35.8231 13.627 35.873 13.577L39.2224 10.2276C38.5476 9.65273 37.6977 9.35279 36.7979 9.35279Z" fill="#FF6C37"/>
<path d="M39.6723 10.2775L39.6223 10.2275L36.048 13.7519L38.8725 16.5764C39.1474 16.4014 39.4224 16.2015 39.6473 15.9765C41.247 14.4018 41.247 11.8522 39.6723 10.2775Z" fill="white"/>
<path d="M38.8975 16.8514C38.8226 16.8514 38.7726 16.8264 38.7226 16.7764L35.8731 13.9269C35.8231 13.8769 35.7981 13.8269 35.7981 13.752C35.7981 13.677 35.8231 13.627 35.8731 13.577L39.4224 10.0276C39.5224 9.92764 39.6724 9.92764 39.7724 10.0276L39.8474 10.0776C41.5221 11.7523 41.5221 14.4518 39.8724 16.1515C39.6224 16.4015 39.3475 16.6264 39.0475 16.8014C38.9725 16.8264 38.9225 16.8514 38.8975 16.8514ZM36.398 13.752L38.9225 16.2765C39.1225 16.1515 39.3225 15.9766 39.4724 15.8266C40.8972 14.4018 40.9722 12.0773 39.5974 10.5775L36.398 13.752Z" fill="#FF6C37"/>
<path d="M34.4483 16.5014C33.8484 15.9015 32.8735 15.9015 32.2736 16.5014L22.8503 25.9247L24.4251 27.4995L34.3983 18.751C35.0481 18.2011 35.0981 17.2263 34.5482 16.5764C34.4982 16.5514 34.4732 16.5264 34.4483 16.5014Z" fill="white"/>
<path d="M24.4001 27.7494C24.3251 27.7494 24.2751 27.7244 24.2251 27.6744L22.6504 26.0997C22.5504 25.9997 22.5504 25.8497 22.6504 25.7497L32.0737 16.3264C32.7736 15.6265 33.8984 15.6265 34.5983 16.3264C35.2981 17.0263 35.2981 18.1511 34.5983 18.851C34.5733 18.876 34.5483 18.901 34.5233 18.926L24.5501 27.6744C24.5251 27.7244 24.4751 27.7494 24.4001 27.7494ZM23.2003 25.9247L24.4251 27.1495L34.2233 18.551C34.7732 18.1011 34.8232 17.2762 34.3733 16.7263C33.9234 16.1764 33.0985 16.1265 32.5486 16.5764C32.5236 16.6014 32.4987 16.6264 32.4487 16.6514L23.2003 25.9247Z" fill="#FF6C37"/>
<path d="M15.6266 36.648C15.5267 36.6979 15.4767 36.7979 15.5017 36.8979L15.9266 38.6976C16.0266 38.9475 15.8766 39.2475 15.6017 39.3225C15.4017 39.3975 15.1767 39.3225 15.0518 39.1725L12.3022 36.448L21.2756 27.4746L24.3751 27.5246L26.4747 29.6242C25.9748 30.0491 22.9503 32.9736 15.6266 36.648Z" fill="white"/>
<path d="M15.4267 39.5724C15.2267 39.5724 15.0268 39.4974 14.9018 39.3474L12.1773 36.6229C12.1273 36.5729 12.1023 36.5229 12.1023 36.4479C12.1023 36.373 12.1273 36.323 12.1773 36.273L21.1507 27.2996C21.2007 27.2496 21.2756 27.2246 21.3256 27.2246L24.4251 27.2746C24.5001 27.2746 24.5501 27.2996 24.6 27.3496L26.6997 29.4492C26.7497 29.4992 26.7747 29.5742 26.7747 29.6492C26.7747 29.7242 26.7497 29.7741 26.6747 29.8241L26.4997 29.9741C23.8502 32.2987 20.2508 34.6233 15.7766 36.8479L16.2016 38.6226C16.2765 38.9475 16.1266 39.2974 15.8266 39.4724C15.6767 39.5474 15.5517 39.5724 15.4267 39.5724ZM12.6772 36.4479L15.2517 38.9975C15.3267 39.1225 15.4767 39.1725 15.6017 39.0975C15.7266 39.0225 15.7766 38.8725 15.7016 38.7475L15.2767 36.9479C15.2267 36.7229 15.3267 36.5229 15.5267 36.423C19.9509 34.1984 23.5252 31.8988 26.1498 29.6242L24.3001 27.7745L21.4256 27.7245L12.6772 36.4479Z" fill="#FF6C37"/>
<path d="M10.1776 38.5976L12.3273 36.448L15.5267 39.6474L10.4276 39.2975C10.2026 39.2725 10.0527 39.0725 10.0777 38.8476C10.0777 38.7476 10.1027 38.6476 10.1776 38.5976Z" fill="white"/>
<path d="M15.5267 39.8722L10.4026 39.5222C10.0277 39.4973 9.77775 39.1723 9.80274 38.7974C9.82774 38.6474 9.87773 38.4974 10.0027 38.3974L12.1523 36.2478C12.2523 36.1479 12.4023 36.1479 12.5023 36.2478L15.7017 39.4473C15.7767 39.5222 15.8017 39.6222 15.7517 39.7222C15.7017 39.8222 15.6267 39.8722 15.5267 39.8722ZM12.3273 36.7977L10.3526 38.7724C10.2777 38.8224 10.2777 38.9473 10.3526 38.9973C10.3776 39.0223 10.4026 39.0473 10.4526 39.0473L14.8768 39.3473L12.3273 36.7977Z" fill="#FF6C37"/>
<path d="M20.4008 28.6244C20.2509 28.6244 20.1509 28.4994 20.1509 28.3745C20.1509 28.2995 20.1759 28.2495 20.2259 28.1995L22.6504 25.7749C22.7504 25.675 22.9004 25.675 23.0004 25.7749L24.5751 27.3497C24.6501 27.4246 24.6751 27.4996 24.6501 27.5996C24.6251 27.6746 24.5501 27.7496 24.4501 27.7746L20.4508 28.6244C20.4258 28.6244 20.4008 28.6244 20.4008 28.6244ZM22.8254 26.2998L21.1757 27.9495L23.8752 27.3746L22.8254 26.2998Z" fill="#FF6C37"/>
<path d="M24.3751 27.5246L21.6256 28.1245C21.4256 28.1745 21.2256 28.0495 21.1756 27.8495C21.1506 27.7245 21.1756 27.5996 21.2756 27.4996L22.8003 25.9749L24.3751 27.5246Z" fill="white"/>
<path d="M21.5756 28.3745C21.2256 28.3745 20.9507 28.0995 20.9507 27.7496C20.9507 27.5746 21.0257 27.4246 21.1257 27.2997L22.6504 25.7749C22.7504 25.675 22.9003 25.675 23.0003 25.7749L24.575 27.3497C24.65 27.4246 24.675 27.4996 24.65 27.5996C24.625 27.6746 24.55 27.7496 24.4501 27.7746L21.7005 28.3745C21.6506 28.3745 21.6006 28.3745 21.5756 28.3745ZM22.8253 26.2998L21.4756 27.6496C21.4256 27.6996 21.4256 27.7496 21.4506 27.7996C21.4756 27.8496 21.5256 27.8746 21.6006 27.8746L23.9002 27.3746L22.8253 26.2998Z" fill="#FF6C37"/>
<path d="M39.6973 12.6772C39.6473 12.5272 39.4724 12.4522 39.3224 12.5022C39.1724 12.5522 39.0974 12.7272 39.1474 12.8772C39.1474 12.9022 39.1724 12.9272 39.1724 12.9522C39.3224 13.2521 39.2724 13.627 39.0724 13.902C38.9725 14.027 38.9975 14.2019 39.0974 14.3019C39.2224 14.4019 39.3974 14.3769 39.4974 14.2519C39.8723 13.777 39.9473 13.1771 39.6973 12.6772Z" fill="#FF6C37"/>
</svg>
